<?xml version="1.0" standalone="no"?><!-- Generator: Gravit.io --><svg xmlns="http://www.w3.org/2000/svg" xmlns:xlink="http://www.w3.org/1999/xlink" style="isolation:isolate" viewBox="0 0 1440 900" width="1440" height="900"><defs><clipPath id="_clipPath_auVwJFhw97APH6KaLydQnM6bNbrCLrjl"><rect width="1440" height="900"/></clipPath></defs><g clip-path="url(#_clipPath_auVwJFhw97APH6KaLydQnM6bNbrCLrjl)"><linearGradient id="_lgradient_2" x1="7.471365055216827%" y1="16.311217003200483%" x2="102.79870777974622%" y2="84.63016156048819%"><stop offset="2.1739130434782608%" stop-opacity="1" style="stop-color:rgb(172,37,27)"/><stop offset="71.73913043478261%" stop-opacity="1" style="stop-color:rgb(242,68,68)"/></linearGradient><path d=" M 728.332 462.092 L 631.248 442.375 C 608.529 437.761 576.025 446.529 558.708 461.943 L 487.946 524.929 C 470.629 540.343 454.537 534.146 452.032 511.098 L 442.382 422.303 C 439.877 399.256 421.119 371.91 400.52 361.274 L 314.161 316.688 C 293.562 306.053 294.207 290.168 315.601 281.238 L 405.913 243.541 C 427.307 234.61 448.364 208.903 452.906 186.169 L 470.453 98.334 C 474.995 75.6 491.64 70.794 507.6 87.609 L 572.222 155.691 C 588.182 172.506 619.825 183.892 642.839 181.101 L 741.463 169.14 C 764.478 166.349 773.3 180.114 761.152 199.86 L 713.017 278.101 C 700.869 297.846 699.441 330.703 709.83 351.428 L 750.673 432.901 C 761.062 453.626 751.052 466.706 728.332 462.092 Z " fill="url(#_lgradient_2)"/><path d=" M 466.47 445.691 L 466.47 445.691 Q 445.07 447.592 431.888 438.54 L 431.888 438.54 L 431.888 438.54 Q 418.706 429.488 413.664 412.774 L 413.664 412.774 L 413.664 412.774 Q 404.009 380.77 419.796 322.954 L 419.796 322.954 L 419.796 322.954 Q 435.582 265.138 462.209 217.496 L 462.209 217.496 L 462.209 217.496 Q 488.836 169.853 506.583 168.276 L 506.583 168.276 L 506.583 168.276 Q 513.89 167.627 521.477 175.898 L 521.477 175.898 L 521.477 175.898 Q 529.064 184.17 531.746 193.06 L 531.746 193.06 L 531.746 193.06 Q 536.68 209.418 526.709 242.983 L 526.709 242.983 L 526.709 242.983 Q 516.737 276.549 494.767 312.093 L 494.767 312.093 L 494.767 312.093 Q 472.798 347.638 442.898 371.107 L 442.898 371.107 L 442.898 371.107 Q 442.334 392.335 446.947 407.626 L 446.947 407.626 L 446.947 407.626 Q 455.208 435.007 478.174 432.967 L 478.174 432.967 L 478.174 432.967 Q 497.486 431.25 512.539 412.752 L 512.539 412.752 L 512.539 412.752 Q 527.592 394.253 536.17 369.392 L 536.17 369.392 L 544.858 371.541 L 544.858 371.541 Q 519.709 440.96 466.47 445.691 L 466.47 445.691 Z  M 443.948 358.599 L 443.948 358.599 Q 466.755 336.491 485.2 304.363 L 485.2 304.363 L 485.2 304.363 Q 503.645 272.235 512.662 243.501 L 512.662 243.501 L 512.662 243.501 Q 521.68 214.767 518.032 202.677 L 518.032 202.677 L 518.032 202.677 Q 516.316 196.987 512.662 197.312 L 512.662 197.312 L 512.662 197.312 Q 505.355 197.961 489.999 224.337 L 489.999 224.337 L 489.999 224.337 Q 474.642 250.714 461.253 288.052 L 461.253 288.052 L 461.253 288.052 Q 447.864 325.39 443.948 358.599 L 443.948 358.599 Z  M 599.483 449.572 L 599.483 449.572 Q 572.864 451.937 555.699 441.231 L 555.699 441.231 L 555.699 441.231 Q 538.535 430.524 532.205 409.543 L 532.205 409.543 L 532.205 409.543 Q 522.014 375.761 536.274 316.438 L 536.274 316.438 L 536.274 316.438 Q 550.534 257.115 576.639 209.518 L 576.639 209.518 L 576.639 209.518 Q 602.744 161.922 623.622 160.067 L 623.622 160.067 L 623.622 160.067 Q 631.451 159.371 637.98 165.911 L 637.98 165.911 L 637.98 165.911 Q 644.508 172.451 647.083 180.986 L 647.083 180.986 L 647.083 180.986 Q 652.125 197.699 643.268 226.966 L 643.268 226.966 L 643.268 226.966 Q 634.411 256.234 614.472 284.295 L 614.472 284.295 L 614.472 284.295 Q 594.532 312.357 568.95 327.044 L 568.95 327.044 L 568.95 327.044 Q 564.74 336.182 562.686 360.463 L 562.686 360.463 L 562.686 360.463 Q 560.632 384.744 566.532 404.302 L 566.532 404.302 L 566.532 404.302 Q 576.617 437.729 605.324 435.178 L 605.324 435.178 L 605.324 435.178 Q 620.461 433.833 634.12 424.038 L 634.12 424.038 L 634.12 424.038 Q 647.78 414.244 653.727 400.206 L 653.727 400.206 L 653.727 400.206 Q 633.528 395.428 619.803 383.685 L 619.803 383.685 L 619.803 383.685 Q 606.077 371.943 601.786 357.719 L 601.786 357.719 L 601.786 357.719 Q 596.744 341.006 606.367 329.379 L 606.367 329.379 L 606.367 329.379 Q 615.99 317.752 634.259 316.129 L 634.259 316.129 L 634.259 316.129 Q 649.395 314.784 660.843 322.53 L 660.843 322.53 L 660.843 322.53 Q 672.291 330.276 677.011 345.922 L 677.011 345.922 L 677.011 345.922 Q 684.092 369.392 673.333 395.908 L 673.333 395.908 L 673.333 395.908 Q 679.918 396.418 687.225 395.768 L 687.225 395.768 L 687.225 395.768 Q 711.757 393.589 723.414 381.599 L 723.414 381.599 L 723.414 381.599 Q 735.072 369.609 742.342 351.071 L 742.342 351.071 L 750 355.137 L 750 355.137 Q 743.295 379.102 726.926 389.685 L 726.926 389.685 L 726.926 389.685 Q 710.556 400.268 687.59 402.308 L 687.59 402.308 L 687.59 402.308 Q 678.717 403.097 670.566 402.726 L 670.566 402.726 L 670.566 402.726 Q 660.271 421.897 642.665 434.598 L 642.665 434.598 L 642.665 434.598 Q 625.059 447.299 599.483 449.572 L 599.483 449.572 Z  M 570.508 312.666 L 570.508 312.666 Q 589.305 298.581 604.568 273.673 L 604.568 273.673 L 604.568 273.673 Q 619.832 248.766 627.373 224.91 L 627.373 224.91 L 627.373 224.91 Q 634.915 201.054 632.126 191.808 L 632.126 191.808 L 632.126 191.808 Q 631.267 188.963 629.18 189.149 L 629.18 189.149 L 629.18 189.149 Q 623.438 189.659 610.38 209.441 L 610.38 209.441 L 610.38 209.441 Q 597.322 229.223 585.587 257.834 L 585.587 257.834 L 585.587 257.834 Q 573.852 286.444 570.508 312.666 L 570.508 312.666 Z  M 656.801 392.63 L 656.801 392.63 Q 663.55 374.139 657.971 355.647 L 657.971 355.647 L 657.971 355.647 Q 654.324 343.557 647.166 336.708 L 647.166 336.708 L 647.166 336.708 Q 640.008 329.858 632.701 330.508 L 632.701 330.508 L 632.701 330.508 Q 624.872 331.203 621.122 339.204 L 621.122 339.204 L 621.122 339.204 Q 617.372 347.205 620.591 357.874 L 620.591 357.874 L 620.591 357.874 Q 623.809 368.542 633.184 378.297 L 633.184 378.297 L 633.184 378.297 Q 642.558 388.053 656.801 392.63 L 656.801 392.63 Z " fill-rule="evenodd" fill="rgb(255,174,53)"/></g></svg>