<?xml version="1.0" standalone="no"?><!-- Generator: Gravit.io --><svg xmlns="http://www.w3.org/2000/svg" xmlns:xlink="http://www.w3.org/1999/xlink" style="isolation:isolate" viewBox="0 0 1490 300" width="1490" height="300"><defs><clipPath id="_clipPath_GXWwePeNSyWmmNYOZIfZeAme5GFEgjch"><rect width="1490" height="300"/></clipPath></defs><g clip-path="url(#_clipPath_GXWwePeNSyWmmNYOZIfZeAme5GFEgjch)"><path d=" M 0 0 L 420 0 L 420 120 L 540 120 L 540.25 90 L 710 90 L 710 120 L 770 120 L 770 90 L 870 90 L 870 120 L 1100 120 L 1100 90 L 1190 90 L 1190 120 L 1220 120 L 1490 120 L 1490 300 L 0 300 L 0 0 Z " fill="rgb(203,56,55)"/><path d=" M 540 150 L 510 150 L 510 240 L 515.333 240 L 480 240 L 480 150 L 420 150 L 420 270 L 540 270 L 540 150 Z " fill="rgb(255,255,255)"/><path d=" M 1010 150 L 980 150 L 980 240 L 985.333 240 L 950 240 L 950 150 L 890 150 L 890 270 L 1010 270 L 1010 150 Z " fill="rgb(255,255,255)"/><path d=" M 30 30 L 30 270 L 150 270 L 150 90 L 210 90 L 210 270 L 270 270 L 270 90 L 330 90 L 330 270 L 390 270 L 390 30 L 30 30 Z " fill="rgb(255,255,255)"/><path d=" M 570 120 L 610 120 L 610 120 L 610 270 L 610 270 L 570 270 L 570 270 L 570 120 L 570 120 Z " fill="rgb(255,255,255)"/><path d=" M 730 150 L 770 150 L 770 150 L 770 270 L 770 270 L 730 270 L 730 270 L 730 150 L 730 150 Z " fill="rgb(255,255,255)"/><path d=" M 800 120 L 840 120 C 840 120 840 120 840 120 L 840 270 C 840 270 840 270 840 270 L 800 270 C 800 270 800 270 800 270 L 800 120 C 800 120 800 120 800 120 Z  M 840 150 L 870 150 L 870 180 L 840 180 L 840 150 Z " fill-rule="evenodd" fill="rgb(255,255,255)"/><path d=" M 680 150 L 710 150 L 710 180 L 680 180 L 680 150 Z  M 640 120 L 680 120 C 680 120 680 120 680 120 L 680 270 C 680 270 680 270 680 270 L 640 270 C 640 270 640 270 640 270 L 640 120 C 640 120 640 120 640 120 Z " fill-rule="evenodd" fill="rgb(255,255,255)"/><path d=" M 1040 150 L 1160 150 L 1160 270 L 1040 270 L 1040 150 Z " fill="rgb(255,255,255)"/><path d=" M 1340 150 L 1460 150 L 1460 270 L 1340 270 L 1340 150 Z " fill="rgb(255,255,255)"/><path d=" M 1190 150 L 1310 150 L 1310 270 L 1190 270 L 1190 150 Z " fill="rgb(255,255,255)"/><path d=" M 1070 180 L 1130 180 L 1130 240 L 1070 240 L 1070 180 Z " fill="rgb(203,56,55)"/><path d=" M 1220 180 L 1237.576 180 L 1280 180 L 1280 200 L 1220 200 L 1220 180 Z " fill="rgb(203,56,55)"/><path d=" M 1370 180 L 1460 180 L 1460 200 L 1370 200 L 1370 180 Z " fill="rgb(203,56,55)"/><path d=" M 1340 220 L 1430 220 L 1430 240 L 1340 240 L 1340 220 Z " fill="rgb(203,56,55)"/><path d=" M 1220 220 L 1246.667 220 L 1330 220 L 1330 240 L 1220 240 L 1220 220 Z " fill="rgb(203,56,55)"/><path d=" M 1130 120 L 1160 120 L 1160 150 L 1130 150 L 1130 120 Z " fill="rgb(255,255,255)"/></g></svg>